<svg width="105" height="132" viewBox="0 0 105 132" fill="none" xmlns="http://www.w3.org/2000/svg">
<path d="M0 115C0 59.7715 44.7715 15 100 15H105V32C105 87.2285 60.2285 132 4.99999 132H0V115Z" fill="#FDD25E" fill-opacity="0.43"/>
<path d="M69 13.2891C68.4179 13.2891 67.9453 13.7616 67.9453 14.3438C67.9453 14.9259 68.4179 15.3984 69 15.3984C69.5821 15.3984 70.0547 14.9259 70.0547 14.3438C70.0547 13.7616 69.5821 13.2891 69 13.2891Z" fill="#4194F4"/>
<path d="M51.4922 32.2734C52.0743 32.2734 52.5469 31.8009 52.5469 31.2188C52.5469 30.6366 52.0743 30.1641 51.4922 30.1641C50.91 30.1641 50.4375 30.6366 50.4375 31.2188C50.4375 31.8009 50.91 32.2734 51.4922 32.2734Z" fill="#4194F4"/>
<path d="M77.4375 2.74219C67.9424 2.74219 60.1493 9.28867 59.5465 17.5346C50.5038 17.9882 42 24.5087 42 33.3281C42 37.0138 43.4584 40.5849 46.1133 43.4144C46.6386 45.5798 46.0008 47.875 44.4184 49.4574C44.1168 49.759 44.0266 50.2126 44.1897 50.6069C44.3529 51.0007 44.7372 51.2578 45.1641 51.2578C48.172 51.2578 51.0707 50.0783 53.2246 47.9998C55.3228 48.715 58.0605 49.1484 60.5625 49.1484C70.0563 49.1484 77.8487 42.6036 78.453 34.3593C80.6613 34.2613 82.9581 33.8534 84.7754 33.2342C86.9293 35.3127 89.828 36.4922 92.8359 36.4922C93.2628 36.4922 93.6471 36.2351 93.8103 35.8412C93.9734 35.447 93.8832 34.9934 93.5816 34.6918C91.9992 33.1094 91.3614 30.8142 91.8867 28.6488C94.5416 25.8192 96 22.2481 96 18.5625C96 9.39867 86.8411 2.74219 77.4375 2.74219ZM60.5625 47.0391C58.0733 47.0391 55.2367 46.5504 53.3367 45.7944C52.9296 45.6321 52.4645 45.7388 52.1683 46.0622C50.8948 47.4543 49.239 48.425 47.4349 48.8712C48.4291 46.9666 48.6828 44.7212 48.078 42.5937C48.0303 42.426 47.9417 42.2728 47.8201 42.1479C45.4273 39.6834 44.1094 36.5511 44.1094 33.3281C44.1094 25.8959 51.6438 19.6172 60.5625 19.6172C68.9843 19.6172 76.3828 25.4736 76.3828 33.3281C76.3828 40.8885 69.2859 47.0391 60.5625 47.0391ZM90.1799 27.3823C90.0583 27.5076 89.9697 27.6608 89.922 27.8281C89.3172 29.9556 89.5709 32.2009 90.5651 34.1055C88.761 33.6598 87.1052 32.6887 85.8317 31.2966C85.5355 30.9736 85.0704 30.8665 84.6633 31.0288C83.0166 31.6839 80.6675 32.1375 78.4498 32.2471C78.1416 28.2586 76.1521 24.5099 72.7507 21.7266H86.5078C87.0904 21.7266 87.5625 21.2544 87.5625 20.6719C87.5625 20.0893 87.0904 19.6172 86.5078 19.6172H69.5105C67.1164 18.3985 64.4282 17.6879 61.6613 17.5387C62.2673 10.455 69.1116 4.85156 77.4375 4.85156C86.3562 4.85156 93.8906 11.1302 93.8906 18.5625C93.8906 21.7855 92.5727 24.9178 90.1799 27.3823Z" fill="#4194F4"/>
<path d="M69 30.1641H55.7109C55.1284 30.1641 54.6562 30.6362 54.6562 31.2188C54.6562 31.8013 55.1284 32.2734 55.7109 32.2734H69C69.5826 32.2734 70.0547 31.8013 70.0547 31.2188C70.0547 30.6362 69.5826 30.1641 69 30.1641Z" fill="#4194F4"/>
<path d="M69 36.4922H51.4922C50.9096 36.4922 50.4375 36.9643 50.4375 37.5469C50.4375 38.1294 50.9096 38.6016 51.4922 38.6016H69C69.5826 38.6016 70.0547 38.1294 70.0547 37.5469C70.0547 36.9643 69.5826 36.4922 69 36.4922Z" fill="#4194F4"/>
<path d="M86.5078 13.2891H73.2188C72.6362 13.2891 72.1641 13.7612 72.1641 14.3438C72.1641 14.9263 72.6362 15.3984 73.2188 15.3984H86.5078C87.0904 15.3984 87.5625 14.9263 87.5625 14.3438C87.5625 13.7612 87.0904 13.2891 86.5078 13.2891Z" fill="#4194F4"/>
</svg>
