<svg width="105" height="132" viewBox="0 0 105 132" fill="none" xmlns="http://www.w3.org/2000/svg">
<path d="M0 115C0 59.7715 44.7715 15 100 15H105V32C105 87.2285 60.2285 132 4.99999 132H0V115Z" fill="#FDD25E" fill-opacity="0.43"/>
<path d="M84.3034 19.9973C82.3032 18.3188 79.3102 18.5814 77.6349 20.578L73.1319 25.9066V10.455C73.1319 9.15992 72.5933 7.90579 71.6545 7.01405L65.6451 1.30556C64.7592 0.464023 63.5984 0.000488281 62.3766 0.000488281H36.746C34.1291 0.000488281 32 2.12959 32 4.74648V49.2533C32 51.8702 34.1291 53.9993 36.746 53.9993H68.386C71.0029 53.9993 73.132 51.8702 73.132 49.2533V40.609C73.3263 40.3788 84.8521 26.7265 84.8884 26.6836C86.5745 24.6742 86.3131 21.6835 84.3034 19.9973ZM63.64 3.76467C69.9695 9.77723 69.52 9.33774 69.6386 9.49257H63.64V3.76467ZM69.9679 49.2533C69.9679 50.1257 69.2582 50.8354 68.3859 50.8354H36.746C35.8737 50.8354 35.164 50.1257 35.164 49.2533V4.74648C35.164 3.87414 35.8737 3.16445 36.746 3.16445H60.4759V11.0744C60.4759 11.9481 61.1843 12.6564 62.058 12.6564H69.9679V29.6505C69.2884 30.4546 63.8319 36.9113 63.2422 37.6092C62.771 38.1707 62.432 38.8443 62.2617 39.5572L60.7915 45.7119C60.6524 46.2947 60.8544 46.9062 61.3134 47.2914C61.7728 47.677 62.4101 47.7691 62.9594 47.531L68.7655 45.0143C69.2014 44.8253 69.6079 44.5686 69.9679 44.2601V49.2533ZM66.2051 39.0051L68.6286 41.0386L68.0896 41.6769C67.9328 41.864 67.7312 42.0143 67.5071 42.1114L64.6042 43.3698L65.3394 40.2924C65.3962 40.0548 65.5091 39.8302 65.6626 39.6474L66.2051 39.0051ZM70.6695 38.6209L68.2472 36.5884C68.4929 36.2977 76.4419 26.8913 76.9916 26.2409L79.4088 28.2692L70.6695 38.6209ZM82.4677 24.6461L81.4501 25.8516L79.034 23.8243L80.0551 22.6159C80.613 21.9512 81.6066 21.8645 82.2697 22.4209C82.9459 22.9882 83.0205 23.9874 82.4677 24.6461Z" fill="#4194F4"/>
<path d="M55.7299 9.49268H39.9099C39.0362 9.49268 38.3279 10.201 38.3279 11.0747C38.3279 11.9484 39.0362 12.6567 39.9099 12.6567H55.7299C56.6036 12.6567 57.3119 11.9484 57.3119 11.0747C57.3119 10.201 56.6036 9.49268 55.7299 9.49268Z" fill="#4194F4"/>
<path d="M65.2219 19.0898H39.9099C39.0362 19.0898 38.3279 19.7982 38.3279 20.6719C38.3279 21.5456 39.0362 22.2539 39.9099 22.2539H65.2219C66.0956 22.2539 66.8039 21.5456 66.8039 20.6719C66.8039 19.7982 66.0956 19.0898 65.2219 19.0898Z" fill="#4194F4"/>
<path d="M65.2219 28.582H39.9099C39.0362 28.582 38.3279 29.2904 38.3279 30.1641C38.3279 31.0378 39.0362 31.7461 39.9099 31.7461H65.2219C66.0956 31.7461 66.8039 31.0378 66.8039 30.1641C66.8039 29.2903 66.0956 28.582 65.2219 28.582Z" fill="#4194F4"/>
<path d="M55.7299 38.0737H39.9099C39.0362 38.0737 38.3279 38.7821 38.3279 39.6558C38.3279 40.5295 39.0362 41.2378 39.9099 41.2378H55.7299C56.6036 41.2378 57.3119 40.5295 57.3119 39.6558C57.3119 38.7821 56.6036 38.0737 55.7299 38.0737Z" fill="#4194F4"/>
</svg>
