<svg width="105" height="132" viewBox="0 0 105 132" fill="none" xmlns="http://www.w3.org/2000/svg">
<path d="M0 115C0 59.7715 44.7715 15 100 15H105V32C105 87.2285 60.2285 132 4.99999 132H0V115Z" fill="#4194F4" fill-opacity="0.43"/>
<g clip-path="url(#clip0)">
<path d="M40.455 10.5474H65.5451C66.1275 10.5474 66.5998 10.0752 66.5998 9.49268C66.5998 8.91017 66.1275 8.43799 65.5451 8.43799H40.455C39.8725 8.43799 39.4003 8.91017 39.4003 9.49268C39.4003 10.0752 39.8725 10.5474 40.455 10.5474Z" fill="#4194F4"/>
<path d="M40.455 14.7661H65.5451C66.1275 14.7661 66.5998 14.2939 66.5998 13.7114C66.5998 13.1289 66.1275 12.6567 65.5451 12.6567H40.455C39.8725 12.6567 39.4003 13.1289 39.4003 13.7114C39.4003 14.2939 39.8725 14.7661 40.455 14.7661Z" fill="#4194F4"/>
<path d="M40.455 18.9849H52.9999C53.5824 18.9849 54.0546 18.5127 54.0546 17.9302C54.0546 17.3477 53.5823 16.8755 52.9999 16.8755H40.455C39.8725 16.8755 39.4003 17.3477 39.4003 17.9302C39.4003 18.5127 39.8725 18.9849 40.455 18.9849Z" fill="#4194F4"/>
<path d="M65.5451 21.0942H45.2007C44.6182 21.0942 44.146 21.5664 44.146 22.1489C44.146 22.7314 44.6182 23.2036 45.2007 23.2036H65.5452C66.1276 23.2036 66.5999 22.7314 66.5999 22.1489C66.5999 21.5664 66.1276 21.0942 65.5451 21.0942Z" fill="#4194F4"/>
<path d="M65.545 25.313H40.455C39.8725 25.313 39.4003 25.7852 39.4003 26.3677C39.4003 26.9502 39.8725 27.4224 40.455 27.4224H65.5451C66.1275 27.4224 66.5998 26.9502 66.5998 26.3677C66.5998 25.7852 66.1275 25.313 65.545 25.313Z" fill="#4194F4"/>
<path d="M65.545 29.5317H58.3336C57.7512 29.5317 57.2789 30.0039 57.2789 30.5864C57.2789 31.1689 57.7512 31.6411 58.3336 31.6411H65.545C66.1274 31.6411 66.5997 31.1689 66.5997 30.5864C66.5997 30.0039 66.1275 29.5317 65.545 29.5317Z" fill="#4194F4"/>
<path d="M40.455 31.6411H52.9999C53.5824 31.6411 54.0546 31.1689 54.0546 30.5864C54.0546 30.0039 53.5823 29.5317 52.9999 29.5317H40.455C39.8725 29.5317 39.4003 30.0039 39.4003 30.5864C39.4003 31.1689 39.8725 31.6411 40.455 31.6411Z" fill="#4194F4"/>
<path d="M65.545 33.7505H40.455C39.8725 33.7505 39.4003 34.2227 39.4003 34.8052C39.4003 35.3877 39.8725 35.8599 40.455 35.8599H65.5451C66.1275 35.8599 66.5998 35.3877 66.5998 34.8052C66.5998 34.2227 66.1275 33.7505 65.545 33.7505Z" fill="#4194F4"/>
<path d="M58.3336 37.9692H40.455C39.8725 37.9692 39.4003 38.4414 39.4003 39.0239C39.4003 39.6064 39.8725 40.0786 40.455 40.0786H58.3337C58.9161 40.0786 59.3884 39.6064 59.3884 39.0239C59.3884 38.4414 58.9161 37.9692 58.3336 37.9692Z" fill="#4194F4"/>
<path d="M79.9091 42.5941C79.6954 41.9217 79.1309 41.4244 78.4376 41.2964L74.1768 40.5026L72.2008 36.7773C72.0482 36.4869 71.8266 36.2478 71.5626 36.0738V5.27402C71.5626 3.85937 71.0075 2.5291 69.9997 1.52831C69.0066 0.542175 67.6965 0.000488281 66.314 0.000488281C66.3016 0.000488281 66.2891 0.000488281 66.2766 0.00059375H31.2734C28.3657 0.00059375 26 2.36625 26 5.27402V7.38339C26 9.12805 27.4194 10.5474 29.1641 10.5474H34.4375V46.6178C34.4375 48.3625 35.8569 49.7819 37.6015 49.7819H64.2192L63.9338 51.7989C63.8286 52.5017 64.1162 53.2003 64.6847 53.6222C65.0209 53.8718 65.4208 53.9996 65.8237 53.9996C66.1017 53.9996 66.3811 53.9388 66.6423 53.8151L70.5633 51.9493L74.3069 53.7797C74.9353 54.1099 75.6878 54.0651 76.2767 53.661C76.8711 53.2531 77.1823 52.5557 77.0891 51.8404L76.5269 47.5396L79.4597 44.5086C79.9517 44.0034 80.124 43.2699 79.9091 42.5941ZM34.4375 8.43808H29.1641C28.5825 8.43808 28.1094 7.96495 28.1094 7.38339V5.27402C28.1094 3.52936 29.5288 2.10996 31.2734 2.10996C33.0181 2.10996 34.4375 3.52936 34.4375 5.27402V8.43808ZM37.6015 47.6725C37.02 47.6725 36.5469 47.1993 36.5469 46.6178V5.27402C36.5469 4.08792 36.1531 2.99189 35.4897 2.10996H66.2839C67.1223 2.10216 67.9132 2.42901 68.5134 3.02501C69.1194 3.62681 69.4532 4.42553 69.4532 5.27392V36.0756C69.1983 36.2445 68.983 36.4747 68.831 36.7537L66.7589 40.5616L62.5996 41.2908C61.9054 41.4113 61.3361 41.9035 61.1135 42.5752C60.8916 43.2454 61.0557 43.9799 61.5412 44.4912L64.5225 47.6387L64.5176 47.6727H37.6015V47.6725ZM74.6571 46.4384C74.4336 46.6694 74.3276 46.9898 74.3692 47.3085L74.9493 51.7459L71.0326 49.8309C70.7438 49.6896 70.4064 49.688 70.1162 49.826L66.071 51.7509L66.6824 47.4304C66.7274 47.1121 66.6249 46.7908 66.4037 46.5574L63.3235 43.3055L67.6243 42.5515C67.9409 42.496 68.215 42.2991 68.3687 42.0167L70.5073 38.0863L72.5518 41.9406C72.7024 42.2245 72.9743 42.4244 73.2904 42.4832L77.691 43.303L74.6571 46.4384Z" fill="#4194F4"/>
<path d="M40.455 23.2036C41.0375 23.2036 41.5097 22.7314 41.5097 22.1489C41.5097 21.5664 41.0375 21.0942 40.455 21.0942H40.4543C39.8718 21.0942 39.4 21.5664 39.4 22.1489C39.4 22.7314 39.8725 23.2036 40.455 23.2036Z" fill="#4194F4"/>
</g>
<defs>
<clipPath id="clip0">
<rect width="54" height="54" fill="white" transform="translate(26)"/>
</clipPath>
</defs>
</svg>
