<svg width="105" height="126" viewBox="0 0 105 126" fill="none" xmlns="http://www.w3.org/2000/svg">
<path d="M0 109C0 53.7715 44.7715 9 100 9H105V26C105 81.2285 60.2285 126 4.99999 126H0V109Z" fill="#FDD25E" fill-opacity="0.43"/>
<path d="M68.9656 0H21.0344C19.3616 0 18.0007 1.36097 18.0007 3.03381V16.7351C18.0007 18.4097 19.3616 19.7719 21.0344 19.7719H23.323L23.352 24.1921C23.3546 24.5881 23.5788 24.9493 23.9325 25.1273C24.0824 25.2027 24.2448 25.2398 24.4066 25.2398C24.6265 25.2398 24.8453 25.1711 25.0295 25.0364L32.2252 19.7718H40.6886L44.1292 24.7821C44.3259 25.0686 44.6512 25.2397 44.9987 25.2397C45.3463 25.2397 45.6714 25.0686 45.8682 24.7821L49.3088 19.7718H57.7751L64.9678 25.0362C65.2872 25.2701 65.7109 25.3051 66.0645 25.1274C66.4183 24.9495 66.6425 24.5886 66.6454 24.1926L66.6768 19.7718H68.9659C70.6387 19.7718 71.9996 18.4095 71.9996 16.735V3.03381C71.9993 1.36097 70.6384 0 68.9656 0V0ZM69.8899 16.7351C69.8899 17.2466 69.4752 17.6625 68.9656 17.6625H65.6293C65.0497 17.6625 64.5787 18.1302 64.5746 18.7097L64.5503 22.117L58.7425 17.8662C58.5617 17.7339 58.3436 17.6625 58.1196 17.6625H48.7534C48.4059 17.6625 48.0807 17.8337 47.8839 18.1202L44.9985 22.322L42.1131 18.1202C41.9164 17.8337 41.5911 17.6625 41.2436 17.6625H31.8804C31.6565 17.6625 31.4384 17.7338 31.2576 17.866L25.4478 22.1168L25.4254 18.7105C25.4216 18.1306 24.9505 17.6626 24.3707 17.6626H21.0344C20.5247 17.6626 20.1101 17.2466 20.1101 16.7353V3.03381C20.1101 2.52408 20.5248 2.10938 21.0344 2.10938H68.9656C69.4753 2.10938 69.8899 2.52408 69.8899 3.03381V16.7351Z" fill="#4194F4"/>
<path d="M68.3381 43.8519C68.8628 42.9822 69.1652 41.964 69.1652 40.8763C69.1652 37.6885 66.5731 35.095 63.3871 35.095C60.1993 35.095 57.6059 37.6885 57.6059 40.8763C57.6059 41.9641 57.9086 42.9824 58.4336 43.8522C57.6672 44.2048 56.986 44.7086 56.4249 45.3216C55.61 42.958 53.7707 41.0267 51.4154 40.1194C52.3022 38.8507 52.8244 37.3094 52.8244 35.6475C52.8244 31.3321 49.3136 27.8213 44.9984 27.8213C40.6831 27.8213 37.1724 31.3321 37.1724 35.6475C37.1724 37.3096 37.6948 38.8512 38.5818 40.12C36.2262 41.0276 34.387 42.9585 33.572 45.3218C33.011 44.7087 32.3299 44.205 31.5635 43.8524C32.0883 42.9826 32.3909 41.9642 32.3909 40.8764C32.3909 37.6886 29.7988 35.0952 26.6126 35.0952C23.425 35.0952 20.8316 37.6886 20.8316 40.8764C20.8316 41.9642 21.1343 42.9825 21.6593 43.8523C19.4909 44.8499 18.0005 47.0559 18.0005 49.5284V52.9453C18.0005 53.5278 18.4727 54 19.0552 54H40.2628C40.8453 54 41.3175 53.5278 41.3175 52.9453C41.3175 52.3628 40.8453 51.8906 40.2628 51.8906H35.222V49.5282V48.0484C35.222 45.0734 37.3338 42.4756 40.2027 41.8255C41.5285 42.857 43.1922 43.4737 44.9983 43.4737C46.8045 43.4737 48.4685 42.8569 49.7944 41.8251C52.6629 42.4746 54.7746 45.0729 54.7746 48.0484V49.5282V51.8906H49.7337C49.1512 51.8906 48.679 52.3628 48.679 52.9453C48.679 53.5278 49.1512 54 49.7337 54H70.9443C71.5268 54 71.999 53.5278 71.999 52.9453V49.5282C71.9992 47.0554 70.5079 44.8492 68.3381 43.8519ZM26.6129 37.2043C28.6359 37.2043 30.2817 38.8515 30.2817 40.8762C30.2817 42.8993 28.6359 44.5452 26.6129 44.5452C24.5883 44.5452 22.9412 42.8993 22.9412 40.8762C22.9412 38.8516 24.5883 37.2043 26.6129 37.2043ZM20.1101 51.8906V49.5282C20.1101 47.6499 21.4094 46.0042 23.1956 45.5332C24.1535 46.2374 25.3352 46.6545 26.6129 46.6545C27.8898 46.6545 29.0706 46.2374 30.028 45.5334C31.8137 46.0047 33.1127 47.6503 33.1127 49.5282V51.8906H20.1101ZM39.2819 35.6475C39.2819 32.4952 41.8463 29.9307 44.9985 29.9307C48.1506 29.9307 50.7151 32.4951 50.7151 35.6475C50.7151 38.7997 48.1506 41.3642 44.9985 41.3642C41.8463 41.3642 39.2819 38.7996 39.2819 35.6475ZM63.3871 37.2043C65.4101 37.2043 67.0558 38.8515 67.0558 40.8762C67.0558 42.8993 65.4101 44.5452 63.3871 44.5452C61.3625 44.5452 59.7153 42.8993 59.7153 40.8762C59.7153 38.8516 61.3625 37.2043 63.3871 37.2043ZM56.8842 49.5282C56.8842 47.6499 58.1836 46.0042 59.9697 45.5332C60.9276 46.2374 62.1093 46.6545 63.387 46.6545C64.6639 46.6545 65.8448 46.2374 66.8022 45.5333C68.5895 46.0043 69.8897 47.6499 69.8897 49.5281V51.8906H56.8842V49.5282Z" fill="#4194F4"/>
<path d="M65.4438 5.88672H37.9791C37.3966 5.88672 36.9244 6.3589 36.9244 6.94141C36.9244 7.52391 37.3966 7.9961 37.9791 7.9961H65.4439C66.0264 7.9961 66.4986 7.52391 66.4986 6.94141C66.4986 6.3589 66.0263 5.88672 65.4438 5.88672Z" fill="#4194F4"/>
<path d="M24.553 7.9961H32.3946C32.9771 7.9961 33.4493 7.52391 33.4493 6.94141C33.4493 6.3589 32.9771 5.88672 32.3946 5.88672H24.553C23.9705 5.88672 23.4983 6.3589 23.4983 6.94141C23.4983 7.52391 23.9705 7.9961 24.553 7.9961Z" fill="#4194F4"/>
<path d="M65.4439 11.7729H57.6053C57.0228 11.7729 56.5507 12.2451 56.5507 12.8276C56.5507 13.4101 57.0228 13.8823 57.6053 13.8823H65.4439C66.0264 13.8823 66.4986 13.4101 66.4986 12.8276C66.4986 12.2451 66.0264 11.7729 65.4439 11.7729Z" fill="#4194F4"/>
<path d="M52.0178 11.7729H24.553C23.9705 11.7729 23.4983 12.2451 23.4983 12.8276C23.4983 13.4101 23.9705 13.8823 24.553 13.8823H52.0178C52.6003 13.8823 53.0725 13.4101 53.0725 12.8276C53.0725 12.2451 52.6003 11.7729 52.0178 11.7729Z" fill="#4194F4"/>
<path d="M44.9985 51.8906C44.416 51.8906 43.9438 52.3628 43.9438 52.9453C43.9438 53.5278 44.416 54 44.9985 54H45.0045C45.5871 54 46.0563 53.5278 46.0563 52.9453C46.0563 52.3628 45.581 51.8906 44.9985 51.8906Z" fill="#4194F4"/>
</svg>
