<svg width="105" height="126" viewBox="0 0 105 126" fill="none" xmlns="http://www.w3.org/2000/svg">
<path d="M0 109C0 53.7715 44.7715 9 100 9H105V26C105 81.2285 60.2285 126 4.99999 126H0V109Z" fill="#4194F4" fill-opacity="0.43"/>
<path d="M69.9533 10.8524C69.9497 10.8524 69.9462 10.8524 69.9428 10.8524H66.3945V9.6382C66.4136 9.15763 66.1027 8.72573 65.6408 8.59149C63.1774 7.94592 60.6407 7.62223 58.094 7.62851C53.9072 7.62851 48.2026 8.57055 43.9843 12.8621C39.7974 8.52868 34.051 7.62851 29.8746 7.62851C27.3279 7.62223 24.7912 7.94592 22.3278 8.59149C21.8659 8.72573 21.555 9.15763 21.5741 9.6382V10.8419H18.0467C17.4687 10.8419 17 11.3106 17 11.8886V45.3207C17 45.8987 17.4687 46.3674 18.0467 46.3674C18.2265 46.3669 18.4031 46.32 18.5596 46.2313C18.6643 46.179 29.1314 40.4535 43.7436 44.1379H43.9006H43.9948C44.0782 44.148 44.1625 44.148 44.246 44.1379C58.9 40.4221 69.3671 46.1371 69.4299 46.2313C69.7538 46.4183 70.1528 46.4183 70.4766 46.2313C70.7985 46.0455 70.9978 45.7029 71 45.3312V11.8991C71 11.3211 70.5315 10.8524 69.9533 10.8524ZM19.0934 43.6564V12.9458H21.5951V39.1974C21.5885 39.7755 22.0518 40.2494 22.6299 40.2559C22.6864 40.2566 22.7429 40.2526 22.7988 40.2441C24.9642 39.9135 27.1504 39.7386 29.3408 39.7208C32.3749 39.6682 35.3964 40.1245 38.2797 41.071C31.7685 40.2836 25.164 41.1736 19.0934 43.6564ZM29.3408 37.6378C27.4369 37.6421 25.5353 37.7645 23.6466 38.0042V10.4651C25.6846 10.0111 27.7657 9.77938 29.8537 9.77427C33.7684 9.77427 39.1694 10.6744 42.9166 14.9032L42.9481 40.9768C40.7709 39.5533 36.5212 37.6378 29.3408 37.6378ZM45.0415 14.9032C48.7887 10.7163 54.1898 9.77427 58.1045 9.77427C60.1923 9.78042 62.2734 10.012 64.3115 10.4651V38.0042C62.4334 37.7622 60.5423 37.6364 58.6488 37.6273C51.5102 37.6273 47.25 39.5428 45.0415 40.9664V14.9032ZM68.8961 43.6564C62.8126 41.1668 56.1929 40.2767 49.668 41.071C52.5649 40.1211 55.6007 39.6646 58.6488 39.7208C60.8529 39.7331 63.0532 39.9045 65.2326 40.2337C65.8041 40.3204 66.3378 39.9274 66.4245 39.3559C66.4331 39.3 66.437 39.2435 66.4363 39.187V12.9458H68.938L68.8961 43.6564Z" fill="#4194F4"/>
</svg>
